# xmcd
#
# Track frame offsets:
#	182
#	13550
#	31665
#	45710
#	61282
#	72082
#	82755
#	96627
#	110965
#	121152
#	133067
#	147865
#
# Disc length: 2148 seconds
#
# Revision: 5
# Processed by: cddbd v1.5.1PL2 Copyright (c) Steve Scherf et al.
# Submitted via: dBpowerAMP V4.0
#
DISCID=a108620c
DTITLE=Various Artist - Crank It Up
DYEAR=1996
DGENRE=country
TTITLE0=Jeff Foxworthy - Redneck Stomp
TTITLE1=Jeff Foxworthy - S.I.N.G.L.E.
TTITLE2=Jeff Foxworthy with Little Texas - Party All Night
TTITLE3=Jeff Foxworthy with Alan Jackson - Redneck Games
TTITLE4=Jeff Foxworthy with Mac Wiseman and Del McCoury - Big O' Moon
TTITLE5=Jeff Foxworthy - 12 Days Of Christmas
TTITLE6=Jeff Foxworthy with Cooter Brown - Pure Bred Redneck
TTITLE7=Jeff Foxworthy with Dave MacKenzie - Let Me Drive
TTITLE8=Jeff Foxworthy - Copenhagen
TTITLE9=Jeff Foxworthy with The Beach Boys and Los Straitjackets - Howdy From Maui
TTITLE10=Jeff Foxworthy - 'Twas The Night After Christmas
TTITLE11=Jeff Foxworthy - Still More You Might Be A Redneck If...
EXTD=
EXTT0=
EXTT1=
EXTT2=
EXTT3=
EXTT4=
EXTT5=
EXTT6=
EXTT7=
EXTT8=
EXTT9=
EXTT10=
EXTT11=
PLAYORDER=
